<?xml version="1.0" encoding="iso-8859-1"?>
<!-- Uploaded to: SVG Repo, www.svgrepo.com, Generator: SVG Repo Mixer Tools -->
<svg version="1.1" id="Layer_1" xmlns="http://www.w3.org/2000/svg" xmlns:xlink="http://www.w3.org/1999/xlink" 
	 viewBox="0 0 512 512" xml:space="preserve">
<path style="fill:#AFF078;" d="M500.811,180.95C468.734,76.188,371.269,0,256,0C114.616,0,0,114.616,0,256
	c0,115.269,76.188,212.734,180.951,244.811L500.811,180.95z"/>
<path style="fill:#5AC779;" d="M512,256c0-26.116-3.921-51.315-11.189-75.05l-54.272-54.272L65.461,385.322l115.489,115.489
	C204.686,508.079,229.885,512,256,512C397.385,512,512,397.385,512,256z"/>
<path style="fill:#4A75C3;" d="M456.348,150.261c0-18.365-15.026-33.391-33.391-33.391H256l-44.522,183.652L456.348,256v-61.217
	l-60.104-16.696l60.104-16.696V150.261z"/>
<path style="fill:#458FDE;" d="M89.043,116.87c-18.365,0-33.391,15.026-33.391,33.391v11.13l60.104,16.696l-60.104,16.696V256
	L256,300.522V116.87H89.043z"/>
<path style="fill:#4D68B5;" d="M456.348,256v105.739c0,18.365-15.026,33.391-33.391,33.391H256l-55.652-69.565L256,256H456.348z"/>
<path style="fill:#4A75C3;" d="M256,256v139.13H89.043c-18.365,0-33.391-15.026-33.391-33.391V256H256z"/>
<polygon style="fill:#2C4290;" points="456.348,161.391 456.348,194.783 256,194.783 222.609,178.087 256,161.391 "/>
<rect x="55.652" y="161.391" style="fill:#4F5AA8;" width="200.348" height="33.391"/>
<rect x="89.043" y="339.478" style="fill:#458FDE;" width="144.696" height="22.261"/>
<path style="fill:#FFFFFF;" d="M400.696,325.399h-22.261v-63.834c0-12.275-9.986-22.261-22.261-22.261s-22.261,9.986-22.261,22.261
	v63.834h-22.261v-63.834c0-24.549,19.972-44.522,44.522-44.522s44.522,19.972,44.522,44.522V325.399z"/>
<polygon style="fill:#E5E5E5;" points="422.957,283.826 422.957,417.391 356.174,417.391 331.89,350.609 356.174,283.826 "/>
<rect x="289.391" y="283.826" style="fill:#F2F2F2;" width="66.783" height="133.565"/>
<polygon style="fill:#B2B2B2;" points="400.696,306.087 400.696,395.13 356.174,395.13 339.985,350.609 356.174,306.087 "/>
<rect x="311.652" y="306.087" style="fill:#CCCCCC;" width="44.522" height="89.043"/>
<rect x="345.043" y="328.348" style="fill:#7F7F7F;" width="22.261" height="44.522"/>
</svg>