<?xml version="1.0" encoding="iso-8859-1"?>
<!-- Uploaded to: SVG Repo, www.svgrepo.com, Generator: SVG Repo Mixer Tools -->
<svg fill="#000000" version="1.1" id="Layer_1" xmlns="http://www.w3.org/2000/svg" xmlns:xlink="http://www.w3.org/1999/xlink" 
	 viewBox="0 0 496 496" xml:space="preserve">
<g>
	<g>
		<g>
			<path d="M481.416,392.144l6.824-40.944L461.544,280H354.848l6.264-48H112.976L86.888,432h17.752c-0.376,2.624-0.64,5.28-0.64,8
				c0,30.88,25.128,56,56,56s56-25.12,56-56c0-2.72-0.264-5.376-0.64-8h105.28c-0.376,2.624-0.64,5.28-0.64,8
				c0,30.88,25.128,56,56,56s56-25.12,56-56h48c8.824,0,16-7.176,16-16v-16C496,399.664,489.568,392.872,481.416,392.144z
				 M392.096,336.112l6.68-40.112h51.68l18,48h-69.68c-3.736,0-6.776-3.04-6.776-6.776C392,336.848,392.032,336.472,392.096,336.112
				z M127.024,248h215.864l-6.264,48H120.76L127.024,248z M160,480c-22.056,0-40-17.944-40-40c0-22.056,17.944-40,40-40
				c22.056,0,40,17.944,40,40C200,462.056,182.056,480,160,480z M330.368,344H144v16h184.28l-7.304,56H210.52
				c-9.016-18.888-28.24-32-50.52-32c-22.28,0-41.504,13.112-50.52,32h-4.368l7.304-56H128v-16h-13.496l4.176-32h215.864
				L330.368,344z M376,480c-22.056,0-40-17.944-40-40c0-22.056,17.944-40,40-40c22.056,0,40,17.944,40,40
				C416,462.056,398.056,480,376,480z M416,392v8.888C405.824,390.48,391.664,384,376,384c-13.944,0-26.68,5.152-36.488,13.616
				L352.76,296h29.792l-6.248,37.496c-0.192,1.232-0.304,2.48-0.304,3.728c0,12.56,10.216,22.776,22.776,22.776h71.784l-5.336,32
				H416z M480,424h-48v-16h48V424z"/>
			<rect y="232" width="16" height="16"/>
			<rect x="32" y="232" width="64" height="16"/>
			<rect y="320" width="16" height="16"/>
			<rect x="32" y="320" width="56" height="16"/>
			<rect y="400" width="72" height="16"/>
			<path d="M176,104h16c0-8.824,7.176-16,16-16c8.824,0,16,7.176,16,16v3.056l-48,24V152h64v-16h-38.112L240,116.944V104
				c0-17.648-14.352-32-32-32S176,86.352,176,104z"/>
			<path d="M284,72l-28,37.336V128h32v24h16v-24h16v-16h-16V72H284z M288,112h-14l14-18.664V112z"/>
			<path d="M248,224c61.76,0,112-50.24,112-112c0-48.736-31.168-91.552-77.536-106.544l-4.92,15.224
				C317.288,33.528,344,70.232,344,112c0,52.936-43.064,96-96,96c-52.936,0-96-43.064-96-96c0-23.384,8.68-45.592,24-63v23h16V24
				h-56v16h26.648C145.616,60.072,136,85.376,136,112C136,173.76,186.24,224,248,224z"/>
			<path d="M265.224,1.448C258.92,0.472,253.28,0,248,0v16c4.456,0,9.288,0.416,14.776,1.264L265.224,1.448z"/>
		</g>
	</g>
</g>
</svg>